<svg width="74" height="74" viewBox="0 0 74 74" fill="none" xmlns="http://www.w3.org/2000/svg">
<path d="M21.5833 46.2498H61.6667V49.3332H21.5833V46.2498ZM33.9167 33.9165V43.1665H49.3333V33.9165H33.9167ZM30.8333 33.9165H21.5833V36.9998H30.8333V33.9165ZM21.5833 43.1665H30.8333V40.0832H21.5833V43.1665ZM61.6667 40.0832H52.4167V43.1665H61.6667V40.0832ZM40.2344 19.8164V18.5954H36.4882V24.5802H40.3577V23.3592H37.9527V22.1073H40.1049V20.8956H37.9527V19.8164H40.2344ZM44.5387 20.6212L45.2726 24.5802H46.8142L48.359 18.5954H46.8728L46.1051 22.6654L45.3713 18.5954H43.8542L43.0217 22.7425L42.2817 18.5954H40.7247L42.143 24.5802H43.7032L44.5387 20.6212ZM50.4002 23.4455C49.9408 23.4455 49.4012 23.3129 48.9633 23.0878L48.8893 23.0478L48.5872 24.2749L48.6334 24.2996C48.9479 24.4784 49.6139 24.6665 50.32 24.6665C52.1114 24.6665 52.7497 23.6552 52.7497 22.7857C52.7497 21.947 52.2532 21.3735 51.1864 20.9788C50.4032 20.6828 50.1442 20.5318 50.1442 20.2173C50.1442 19.9151 50.4526 19.7208 50.9274 19.7208C51.3467 19.7208 51.7476 19.8133 52.1238 19.9922L52.1947 20.0261L52.5246 18.8236L52.4783 18.802C52.0312 18.6016 51.5194 18.4998 50.9521 18.4998C49.5892 18.4998 48.6735 19.2368 48.6735 20.3283C48.6735 21.1361 49.2316 21.7404 50.3231 22.1197C51.023 22.3694 51.2604 22.5637 51.2604 22.8813C51.2604 23.242 50.9459 23.4455 50.4002 23.4455ZM33.9814 24.5802H35.4768V18.5954H34.1263V22.2615L32.1499 18.5954H30.5003V24.5802H31.8508V20.4886L33.9814 24.5802ZM61.6667 27.7498H21.5833V30.8332H61.6667V27.7498ZM61.6667 33.9165H52.4167V36.9998H61.6667V33.9165ZM9.25 6.1665V59.1968C9.25 61.574 6.16667 61.574 6.16667 59.1968V12.3332H0V61.6048C0 65.0428 2.79042 67.8332 6.22833 67.8332H67.7655C71.2096 67.8332 74 65.0458 74 61.6048V6.1665H9.25ZM67.8333 55.4998H15.4167V12.3332H67.8333V55.4998Z" fill="#222222"/>
</svg>
